# xmcd
#
# Track frame offsets:
#	150
#	19051
#	38632
#	55970
#	79150
#	108183
#	131270
#	146258
#	162431
#	180315
#	201779
#	226124
#
# Disc length: 3365 seconds
#
# Revision: 1
# Processed by: cddbd v1.5.2PL0 Copyright (c) Steve Scherf et al.
# Submitted via: audiograbber 1.83.01
#
DISCID=8c0d230c
DTITLE=Brilleaux - Decade
DYEAR=1900
DGENRE=Blues
TTITLE0=This Ain't Rock 'n' Roll
TTITLE1=PhD In Stupidity
TTITLE2=Angry Young Man
TTITLE3=I'm A Howling Wolf
TTITLE4=I Wonder Why I Can't Get No Sleep
TTITLE5=I Love Girls
TTITLE6=It Wasn't Me
TTITLE7=Live With Me
TTITLE8=Seven Shades of Surprised
TTITLE9=Son of A Bitch
TTITLE10=I Just Wanna Make Love To You
TTITLE11=She's A Tees
EXTD=
EXTT0=
EXTT1=
EXTT2=
EXTT3=
EXTT4=
EXTT5=
EXTT6=
EXTT7=
EXTT8=
EXTT9=
EXTT10=
EXTT11=
PLAYORDER=
